<svg width="88" height="67" viewBox="0 0 88 67" fill="none" xmlns="http://www.w3.org/2000/svg">
<g clip-path="url(#clip0_437_348)">
<mask id="path-1-inside-1_437_348" fill="white">
<path d="M7.23381 58.3761C8.32696 50.242 14.8771 32.0536 23.5333 23.2883C23.7586 19.5205 25.3998 11.604 30.162 10.0799C31.6383 9.60515 35.1712 9.33628 37.4916 12.0587C38.7875 13.5789 39.1122 13.9599 39.731 15.1976C42.3829 14.3248 47.5653 14.5995 49.6825 14.7992C54.6905 15.2146 64.8012 16.9861 65.1811 20.749C70.9365 22.0939 82.6394 24.9268 83.4072 25.4986C84.3669 26.2133 83.1748 33.9118 80.1918 37.2374C78.0531 39.6216 76.025 41.7499 67.1157 45.3059C64.2526 46.5707 58.6028 50.9964 58.909 58.5818C58.5924 59.4646 57.667 60.7639 56.4982 58.8992C56.1656 56.373 56.4556 50.4661 60.2758 47.0474L60.1262 46.4239C55.3673 47.0504 50.6552 45.9897 48.894 45.3811C47.7354 42.7095 50.0549 42.7067 51.1116 43.0719C53.8513 44.7285 63.4005 44.4799 70.0294 41.1375C71.4525 40.6229 73.4084 39.6272 69.848 39.7596C69.1268 39.7611 67.2613 40.0365 65.9135 40.5579C64.8153 40.9828 64.8302 39.9996 65.0412 39.4111C65.2352 38.8706 66.3273 38.2216 67.1782 38.1096C71.8942 37.7691 76.6135 38.5495 80.3072 32.6352C79.1997 31.8932 76.97 30.2991 76.912 29.8581L76.7669 28.7558L78.9599 26.7849C79.2133 26.518 79.5427 25.9513 78.833 25.8204C78.1232 25.6896 67.9134 23.2396 62.8973 22.0309C62.8359 21.1979 61.9673 19.3497 58.986 18.6208C55.88 17.6747 47.8314 16.0802 40.4862 17.2715L40.7402 19.2006C40.3863 19.4341 39.4369 19.8207 38.4712 19.4993C37.9266 17.188 35.8509 12.527 31.9066 12.3734C30.4704 12.4223 27.3901 14.2296 26.5591 21.0676L27.1396 25.4769C27.7767 27.0284 29.5228 30.2095 31.4105 30.5217C31.9025 30.971 32.4289 31.9016 30.5993 32.0303C28.7696 32.1591 26.1025 28.5571 24.9977 26.7401C21.9268 29.7143 14.6493 40.1859 10.1063 58.2783C9.67319 59.7371 7.57848 60.9941 7.23381 58.3761Z"/>
</mask>
<path d="M23.5333 23.2883L30.6485 30.3149L33.291 27.6391L33.5155 23.8852L23.5333 23.2883ZM7.23381 58.3761L-2.67709 57.0441L-2.85427 58.3625L-2.68064 59.6813L7.23381 58.3761ZM10.1063 58.2783L19.6927 61.1244L19.7533 60.9202L19.8052 60.7137L10.1063 58.2783ZM24.9977 26.7401L33.5421 21.5447L27.036 10.8445L18.0405 19.5569L24.9977 26.7401ZM30.5993 32.0303L29.8974 22.055L29.8974 22.055L30.5993 32.0303ZM31.4105 30.5217L38.1538 23.1374L35.9656 21.1392L33.0421 20.6557L31.4105 30.5217ZM27.1396 25.4769L17.2252 26.7821L17.395 28.0718L17.8891 29.2751L27.1396 25.4769ZM26.5591 21.0676L16.6322 19.8612L16.4795 21.1178L16.6447 22.3728L26.5591 21.0676ZM31.9066 12.3734L32.2957 2.38095L31.931 2.36675L31.5663 2.37917L31.9066 12.3734ZM38.4712 19.4993L28.7378 21.7929L30.0178 27.2248L35.3128 28.9874L38.4712 19.4993ZM40.7402 19.2006L46.2477 27.5473L51.4716 24.1004L50.6546 17.8953L40.7402 19.2006ZM40.4862 17.2715L38.8853 7.40051L29.305 8.95432L30.5718 18.5768L40.4862 17.2715ZM58.986 18.6208L56.072 28.1868L56.3394 28.2683L56.6109 28.3347L58.986 18.6208ZM62.8973 22.0309L52.9245 22.7669L53.4615 30.0434L60.5548 31.7526L62.8973 22.0309ZM78.833 25.8204L77.0198 35.6547L77.0198 35.6547L78.833 25.8204ZM78.9599 26.7849L85.6441 34.2228L85.9397 33.9572L86.2132 33.669L78.9599 26.7849ZM76.7669 28.7558L70.0827 21.318L66.1649 24.8388L66.8524 30.0611L76.7669 28.7558ZM80.3072 32.6352L88.789 37.9324L93.9191 29.7182L85.8734 24.3276L80.3072 32.6352ZM67.1782 38.1096L66.458 28.1355L66.1646 28.1567L65.8729 28.1951L67.1782 38.1096ZM65.0412 39.4111L55.629 36.0332L55.6283 36.0353L65.0412 39.4111ZM65.9135 40.5579L62.3053 31.2316L62.3049 31.2317L65.9135 40.5579ZM69.848 39.7596L69.8699 49.7595L70.0447 49.7591L70.2193 49.7527L69.848 39.7596ZM70.0294 41.1375L66.6292 31.7332L66.0639 31.9377L65.5271 32.2083L70.0294 41.1375ZM60.2758 47.0474L66.9443 54.4993L71.3924 50.5189L69.9999 44.7145L60.2758 47.0474ZM56.4982 58.8992L46.5838 60.2045L46.8681 62.3644L48.0251 64.2102L56.4982 58.8992ZM58.909 58.5818L68.3219 61.9577L68.9794 60.1245L68.9009 58.1786L58.909 58.5818ZM67.1157 45.3059L63.4088 36.0183L63.2405 36.0855L63.0748 36.1587L67.1157 45.3059ZM80.1918 37.2374L72.7478 30.56L72.7477 30.5601L80.1918 37.2374ZM83.4072 25.4986L77.4342 33.5188L77.4343 33.5188L83.4072 25.4986ZM65.1811 20.749L55.2317 21.7536L55.9494 28.861L62.9055 30.4866L65.1811 20.749ZM49.6825 14.7992L48.7431 24.755L48.7995 24.7603L48.8558 24.765L49.6825 14.7992ZM37.4916 12.0587L29.8811 18.5456L29.8811 18.5456L37.4916 12.0587ZM30.162 10.0799L33.2101 19.604L33.2232 19.5998L30.162 10.0799ZM39.731 15.1976L30.7866 19.6695L34.6504 27.3975L42.8573 24.6963L39.731 15.1976ZM51.1116 43.0719L56.2859 34.5146L55.3793 33.9664L54.378 33.6204L51.1116 43.0719ZM48.894 45.3811L39.7196 49.3598L41.4699 53.3957L45.6276 54.8326L48.894 45.3811ZM60.1262 46.4239L69.8503 44.091L67.7494 35.334L58.821 36.5095L60.1262 46.4239ZM16.4181 16.2616C10.8018 21.9487 6.40706 30.0157 3.35701 37.1272C0.283851 44.2926 -1.97006 51.7832 -2.67709 57.0441L17.1447 59.708C17.5308 56.8349 19.0985 51.1642 21.7378 45.0106C24.4001 38.803 27.6086 33.3931 30.6485 30.3149L16.4181 16.2616ZM-2.68064 59.6813C-2.44814 61.4473 -1.69966 64.5922 1.06018 67.0877C4.30563 70.0224 8.32236 70.3071 11.2683 69.5035C13.8631 68.7958 15.7072 67.3102 16.8416 66.0919C18.0337 64.8118 19.0964 63.133 19.6927 61.1244L0.519879 55.4321C0.899672 54.1529 1.53813 53.1784 2.20481 52.4624C2.81396 51.8082 4.03156 50.7468 6.00544 50.2084C8.33052 49.5742 11.7319 49.7735 14.4741 52.2531C16.7307 54.2936 17.0881 56.6139 17.1483 57.0708L-2.68064 59.6813ZM19.8052 60.7137C24.0318 43.8815 30.5766 35.2581 31.9548 33.9233L18.0405 19.5569C13.277 24.1705 5.26681 36.4903 0.407389 55.8429L19.8052 60.7137ZM16.4532 31.9355C17.2493 33.2448 18.5868 35.1859 20.2035 36.9246C21.0007 37.7819 22.146 38.8959 23.5799 39.847C24.7986 40.6553 27.5826 42.2673 31.3011 42.0057L29.8974 22.055C31.3799 21.9507 32.5485 22.2484 33.254 22.5014C33.9578 22.7538 34.4249 23.0407 34.635 23.1801C35.0197 23.4353 35.0861 23.5594 34.8498 23.3052C34.6599 23.1011 34.4115 22.7998 34.1428 22.4337C33.878 22.073 33.6657 21.748 33.5421 21.5447L16.4532 31.9355ZM31.3011 42.0057C32.4162 41.9272 34.4121 41.6738 36.4606 40.5243C38.9159 39.1466 41.3524 36.4581 41.808 32.5559C42.1843 29.3329 40.9881 26.9096 40.3609 25.8468C39.6472 24.6372 38.8157 23.7418 38.1538 23.1374L24.6673 37.9061C24.2514 37.5263 23.6701 36.9157 23.1363 36.0109C22.689 35.253 21.6023 33.1546 21.943 30.2365C22.363 26.6392 24.6188 24.2356 26.6736 23.0826C28.3215 22.1579 29.6971 22.0691 29.8974 22.055L31.3011 42.0057ZM33.0421 20.6557C34.9639 20.9736 36.1119 21.8654 36.4429 22.1416C36.8311 22.4655 36.9582 22.6707 36.8774 22.5603C36.822 22.4845 36.7197 22.3277 36.6003 22.1076C36.4817 21.8889 36.4083 21.7225 36.3902 21.6786L17.8891 29.2751C18.4414 30.6202 19.4047 32.5493 20.7348 34.3678C21.4061 35.2856 22.3635 36.4416 23.6299 37.4983C24.8392 38.5072 26.9132 39.9138 29.7789 40.3877L33.0421 20.6557ZM37.0541 24.1716L36.4736 19.7623L16.6447 22.3728L17.2252 26.7821L37.0541 24.1716ZM36.4861 22.2739C36.7427 20.1622 37.2179 19.919 36.805 20.4335C36.5992 20.6899 36.1837 21.1137 35.4821 21.5081C34.8429 21.8674 33.7548 22.3162 32.2469 22.3676L31.5663 2.37917C22.7784 2.67841 17.707 11.0165 16.6322 19.8612L36.4861 22.2739ZM31.5175 22.3658C30.4767 22.3253 29.6156 21.9672 29.0533 21.6002C28.7956 21.432 28.6251 21.2791 28.5304 21.1851C28.4819 21.137 28.4484 21.0995 28.4282 21.0758C28.408 21.0522 28.3986 21.0393 28.3986 21.0393C28.3985 21.0392 28.4056 21.0488 28.4185 21.0691C28.4315 21.0894 28.4485 21.1175 28.4687 21.1536C28.5104 21.2281 28.5564 21.3201 28.6017 21.4243C28.7035 21.6581 28.7431 21.8151 28.7378 21.7929L48.2046 17.2057C47.6947 15.0418 46.5649 11.9925 44.529 9.2151C42.5039 6.4525 38.5177 2.62321 32.2957 2.38095L31.5175 22.3658ZM35.3128 28.9874C40.2073 30.6167 44.387 28.775 46.2477 27.5473L35.2327 10.8539C36.1204 10.2681 36.9604 9.94601 37.7523 9.77736C38.623 9.59194 40.0194 9.47515 41.6296 10.0112L35.3128 28.9874ZM50.6546 17.8953L50.4007 15.9663L30.5718 18.5768L30.8257 20.5059L50.6546 17.8953ZM42.0872 27.1425C47.3969 26.2814 53.8132 27.4988 56.072 28.1868L61.8999 9.05478C57.9467 7.85058 48.2658 5.87911 38.8853 7.40051L42.0872 27.1425ZM56.6109 28.3347C55.9629 28.1762 53.224 26.8255 52.9245 22.7669L72.8702 21.2948C72.4477 15.5703 67.9717 10.5232 61.361 8.90694L56.6109 28.3347ZM60.5548 31.7526C65.2755 32.8901 75.9563 35.4586 77.0198 35.6547L80.6461 15.9862C80.7796 16.0108 80.3557 15.9184 79.038 15.6086C77.9189 15.3454 76.432 14.9921 74.8013 14.603C71.5426 13.8253 67.7437 12.9124 65.2399 12.3091L60.5548 31.7526ZM77.0198 35.6547C75.9769 35.4624 73.5852 34.8153 71.5994 32.5015C69.384 29.9201 69.0796 26.9405 69.3438 24.9414C69.5762 23.1828 70.2384 21.9528 70.5633 21.4094C70.9396 20.7798 71.3418 20.2854 71.7067 19.9009L86.2132 33.669C86.763 33.0897 88.723 30.955 89.1714 27.5618C89.4609 25.3713 89.1217 22.2088 86.7763 19.4761C84.6606 17.0108 82.0438 16.2439 80.6461 15.9861L77.0198 35.6547ZM72.2757 19.3471L70.0827 21.318L83.4511 36.1936L85.6441 34.2228L72.2757 19.3471ZM66.8524 30.0611L66.9975 31.1634L86.8264 28.5529L86.6813 27.4505L66.8524 30.0611ZM66.9975 31.1634C67.3899 34.1438 69.0332 36.0833 69.1722 36.2597C69.6609 36.8805 70.14 37.3538 70.4192 37.6195C71.0094 38.1808 71.6306 38.6807 72.0799 39.0298C73.0272 39.766 74.0667 40.4911 74.7411 40.9429L85.8734 24.3276C85.4402 24.0373 84.8111 23.5943 84.3522 23.2377C84.0983 23.0404 84.082 23.0127 84.2032 23.128C84.248 23.1706 84.5347 23.4412 84.8861 23.8875C85.0639 24.1134 85.3856 24.5439 85.7151 25.1446C85.998 25.6602 86.6042 26.8646 86.8264 28.5529L66.9975 31.1634ZM71.8255 27.3381C71.4731 27.9023 71.3089 27.9757 71.4247 27.8903C71.5553 27.7939 71.6664 27.7694 71.5827 27.7914C71.4156 27.8354 71.0359 27.9062 70.1237 27.9589C69.6618 27.9855 69.2005 28.0017 68.5571 28.0267C67.9615 28.0498 67.2275 28.08 66.458 28.1355L67.8983 48.0836C69.3087 47.9818 69.1867 48.0462 71.2758 47.9256C72.6903 47.844 74.6055 47.6765 76.6694 47.1337C81.3745 45.8964 85.5975 43.0426 88.789 37.9324L71.8255 27.3381ZM65.8729 28.1951C63.7725 28.4716 61.9803 29.2624 60.6928 30.0401C59.997 30.4604 59.1769 31.0398 58.3763 31.816C57.686 32.4853 56.4013 33.8813 55.629 36.0332L74.4534 42.7891C73.7781 44.6707 72.7027 45.7828 72.2983 46.1749C71.7837 46.6739 71.3261 46.9827 71.0339 47.1592C70.5537 47.4492 69.733 47.8595 68.4834 48.024L65.8729 28.1951ZM55.6283 36.0353C55.3132 36.9138 55.0616 37.9432 54.968 39.0745C54.8847 40.0831 54.8563 41.9787 55.7099 44.0991C56.7139 46.5931 58.9527 49.2602 62.6068 50.2756C65.693 51.1333 68.2768 50.3659 69.5222 49.8841L62.3049 31.2317C63.0011 30.9623 65.175 30.2314 67.9617 31.0058C71.3164 31.9381 73.3661 34.4023 74.2629 36.63C75.0093 38.4841 74.9556 40.0502 74.9001 40.7222C74.8344 41.5169 74.6637 42.2027 74.4542 42.787L55.6283 36.0353ZM69.5218 49.8842C69.4696 49.9044 69.4469 49.9112 69.4584 49.9075C69.4687 49.9043 69.4983 49.8953 69.5476 49.8823C69.6509 49.855 69.7862 49.8244 69.936 49.7967C70.0866 49.7688 70.2031 49.7528 70.2605 49.7462C70.2876 49.7431 70.2784 49.7448 70.2345 49.7479C70.2113 49.7495 70.1711 49.7521 70.1155 49.7544C70.0615 49.7567 69.9778 49.7593 69.8699 49.7595L69.826 29.7596C67.9142 29.7638 64.8301 30.2547 62.3053 31.2316L69.5218 49.8842ZM70.2193 49.7527C71.1021 49.7199 70.2388 49.8569 68.8775 49.475C68.6038 49.3982 65.1769 48.5485 63.127 44.9C60.3085 39.8833 62.8535 35.482 63.7983 34.2182C64.7675 32.9218 65.7996 32.2466 65.9828 32.1242C66.3288 31.8931 66.5788 31.7677 66.6364 31.739C66.7617 31.6764 66.7546 31.6879 66.6292 31.7332L73.4295 50.5417C74.0157 50.3297 74.7867 50.0238 75.5677 49.634C75.9532 49.4416 76.5005 49.1501 77.0895 48.7567C77.5158 48.4721 78.7366 47.6385 79.8167 46.1936C80.8724 44.7815 83.4505 40.242 80.5635 35.1035C78.4451 31.3331 74.8483 30.3779 74.2795 30.2183C72.328 29.6709 70.374 29.7331 69.4766 29.7665L70.2193 49.7527ZM53.6073 39.5955C49.65 43.1368 47.8734 47.6208 47.0821 51.0754C46.2916 54.5265 46.272 57.8364 46.5838 60.2045L66.4127 57.594C66.4148 57.6104 66.406 57.5457 66.4003 57.4042C66.3948 57.2675 66.3935 57.0887 66.4023 56.8787C66.4203 56.4468 66.4767 55.9796 66.5773 55.5406C66.8029 54.5555 67.0814 54.3767 66.9443 54.4993L53.6073 39.5955ZM48.0251 64.2102C48.7888 65.4285 50.2847 67.4357 52.891 68.7244C56.0357 70.2794 59.5193 70.1582 62.3841 68.7698C64.7588 67.6191 66.1387 65.8953 66.795 64.9437C67.527 63.8825 68.0098 62.828 68.3219 61.9577L49.4961 55.206C49.6499 54.777 49.8983 54.2161 50.3312 53.5884C50.6885 53.0704 51.7046 51.7205 53.6623 50.7718C56.1101 49.5856 59.1234 49.4947 61.7559 50.7965C63.8501 51.832 64.7921 53.3023 64.9713 53.5882L48.0251 64.2102ZM68.9009 58.1786C68.859 57.1423 69.1721 56.4098 69.6983 55.7375C69.9883 55.3671 70.3318 55.0401 70.6679 54.7823C71.0251 54.5084 71.2348 54.4185 71.1566 54.4531L63.0748 36.1587C58.1532 38.3329 48.3814 45.7118 48.9171 58.9851L68.9009 58.1786ZM70.8226 54.5934C75.6102 52.6826 79.0721 50.9538 81.788 49.1203C84.6995 47.1548 86.3901 45.3034 87.6358 43.9147L72.7477 30.5601C71.8547 31.5556 71.462 31.9604 70.5974 32.5441C69.5373 33.2598 67.5306 34.3732 63.4088 36.0183L70.8226 54.5934ZM87.6357 43.9147C90.8276 40.3564 92.3484 35.6081 93.0304 32.6003C93.4103 30.9249 93.6804 29.1229 93.7256 27.4343C93.7471 26.6292 93.7299 25.4802 93.4962 24.2318C93.379 23.6057 93.1552 22.6648 92.6864 21.6196C92.2498 20.6461 91.3024 18.9099 89.3801 17.4783L77.4343 33.5188C75.632 32.1766 74.7877 30.5843 74.4376 29.8037C74.0553 28.9514 73.9014 28.2524 73.8376 27.9117C73.7666 27.5323 73.7456 27.2548 73.7383 27.1254C73.7304 26.9843 73.7326 26.905 73.7327 26.899C73.7329 26.8945 73.7283 27.0205 73.6927 27.2778C73.6586 27.5242 73.6042 27.831 73.5256 28.1775C73.3627 28.8957 73.1388 29.5972 72.901 30.1504C72.6336 30.7721 72.5164 30.818 72.7478 30.56L87.6357 43.9147ZM89.3801 17.4783C88.1939 16.5949 87.009 16.1441 86.9005 16.1001C86.4918 15.9342 86.0995 15.7978 85.7999 15.698C85.1837 15.4927 84.4736 15.2822 83.7713 15.0832C82.3413 14.678 80.5203 14.2013 78.6204 13.72C74.7991 12.7518 70.3702 11.6922 67.4567 11.0113L62.9055 30.4866C65.7474 31.1507 70.0476 32.1799 73.7086 33.1074C75.5498 33.5739 77.1582 33.9967 78.3183 34.3255C78.9111 34.4935 79.2862 34.6086 79.4794 34.673C79.5846 34.708 79.528 34.6924 79.3779 34.6314C79.3027 34.6009 79.1172 34.5241 78.8712 34.4024C78.6983 34.317 78.1163 34.0267 77.4342 33.5188L89.3801 17.4783ZM75.1305 19.7443C74.5757 14.2499 70.7048 11.1743 68.7533 9.90585C66.5294 8.46028 64.047 7.54541 62.054 6.9445C57.9643 5.71147 53.4416 5.07668 50.5091 4.83344L48.8558 24.765C50.9314 24.9371 53.9679 25.3958 56.2807 26.0931C57.4887 26.4573 57.9183 26.7168 57.8535 26.6747C57.7953 26.6369 57.3113 26.3226 56.7573 25.6197C56.1583 24.8595 55.413 23.5485 55.2317 21.7536L75.1305 19.7443ZM45.1021 5.57172C39.024 -1.55924 30.4157 -0.506007 27.1007 0.55995L33.2232 19.5998C32.813 19.7317 32.565 19.7602 32.46 19.7692C32.3317 19.7802 32.1679 19.7822 31.9553 19.7487C31.4737 19.6729 30.5798 19.3652 29.8811 18.5456L45.1021 5.57172ZM27.1139 0.555743C20.2575 2.75007 17.1477 8.84255 15.8344 12.1973C14.3336 16.0311 13.7106 20.0256 13.5512 22.6913L33.5155 23.8852C33.5435 23.4165 33.6272 22.673 33.7991 21.8161C33.9715 20.9569 34.1996 20.1487 34.4582 19.488C34.7315 18.7899 34.928 18.5407 34.9023 18.5723C34.8517 18.6344 34.3271 19.2465 33.2101 19.604L27.1139 0.555743ZM50.6218 4.84342C49.3045 4.71914 47.1305 4.57768 44.8255 4.59651C42.8305 4.61281 39.5201 4.73927 36.6047 5.69883L42.8573 24.6963C42.5698 24.7909 42.6068 24.7416 43.1536 24.6841C43.6315 24.6338 44.2555 24.6018 44.9889 24.5958C46.4674 24.5838 47.9433 24.6795 48.7431 24.755L50.6218 4.84342ZM48.6753 10.7256C47.4755 8.32575 46.4602 7.16504 45.1021 5.57172L29.8811 18.5456C30.221 18.9443 30.4303 19.1903 30.5951 19.3894C30.7514 19.5784 30.7903 19.6329 30.7823 19.622C30.758 19.5885 30.7191 19.5303 30.6884 19.4784C30.6697 19.4466 30.6934 19.4832 30.7866 19.6695L48.6753 10.7256ZM65.5271 32.2083C63.6823 33.1385 60.9925 33.8057 58.3474 34.0086C57.0734 34.1063 56.062 34.0755 55.4212 34.0026C55.1039 33.9665 54.9936 33.933 55.053 33.9491C55.0568 33.9502 55.5636 34.0779 56.2859 34.5146L45.9373 51.6292C48.4936 53.1749 51.3412 53.6675 53.161 53.8745C55.2884 54.1164 57.5922 54.1252 59.8766 53.95C64.3484 53.6071 69.7475 52.4789 74.5317 50.0666L65.5271 32.2083ZM54.378 33.6204C53.1602 33.1995 51.8068 32.9437 50.425 32.9065C49.1422 32.8721 46.9422 33.0005 44.6318 34.1778C41.9103 35.5646 39.4978 38.2277 38.7822 41.9577C38.1768 45.1134 39.0374 47.7867 39.7196 49.3598L58.0684 41.4023C58.1713 41.6396 58.8874 43.3107 58.424 45.7259C57.8505 48.7154 55.8667 50.8997 53.7123 51.9975C51.9691 52.8859 50.4746 52.9151 49.8877 52.8993C49.2019 52.8809 48.5346 52.7616 47.8452 52.5234L54.378 33.6204ZM45.6276 54.8326C48.4394 55.8043 54.7489 57.2181 61.4315 56.3384L58.821 36.5095C57.5344 36.6788 56.0786 36.6343 54.6939 36.4516C54.0236 36.3632 53.4306 36.2503 52.9591 36.1422C52.725 36.0885 52.5331 36.0387 52.388 35.998C52.316 35.9778 52.2597 35.961 52.2191 35.9484C52.1779 35.9356 52.1588 35.929 52.1604 35.9296L45.6276 54.8326ZM50.4022 48.7568L50.5518 49.3804L69.9999 44.7145L69.8503 44.091L50.4022 48.7568Z" fill="black" mask="url(#path-1-inside-1_437_348)"/>
<path d="M34.2226 25.0135C30.0522 22.2301 31.536 16.6456 32.6186 16.1126C34.3419 14.9745 35.6097 15.849 34.2608 16.5473C33.1816 17.1059 32.9654 19.8419 33.2418 20.8469C33.4491 21.6006 34.7367 23.08 35.8212 24.022C36.0078 24.3446 36.2426 25.0339 35.6895 25.2109C35.1365 25.3878 34.4811 25.153 34.2226 25.0135Z" fill="black"/>
<path d="M49.01 15.4602C49.4506 15.9962 46.6085 8.867 43.4384 7.77141C39.9032 7.7326 38.7872 14.2046 38.3853 14.6134C37.9835 15.0222 48.5694 14.9242 49.01 15.4602Z" stroke="black" stroke-width="2.5"/>
</g>
<defs>
<clipPath id="clip0_437_348">
<rect width="40" height="16" fill="white" transform="translate(0.975616 10.8403) rotate(-7.5)"/>
</clipPath>
</defs>
</svg>
